<?xml version="1.0" encoding="UTF-8"?>
<svg width="100pt" height="100pt" version="1.1" viewBox="0 0 100 100" xmlns="http://www.w3.org/2000/svg">
<style>
    path {
        fill: #000;
    }
    @media (prefers-color-scheme: dark) {
        path {
            fill: #fff;
        }
    }
</style>
 <path d="m60.602 67.066c-1.5742 1.582-3.7188 2.4688-5.9531 2.4648h-2.4492c2.1523 1.5234 6.0938 3.5703 9.9531 1.6445 3.5938-1.7891 3.6875-6.0391 3.3242-8.7812-0.3125 0.27344-0.64062 0.52344-0.98047 0.75391z"/>
 <path d="m39.398 67.066-4.0156-4.0156v0.003907c-0.29687-0.21484-0.58203-0.44922-0.85156-0.69531-0.36719 2.7422-0.28516 7.0234 3.3203 8.8203 3.8555 1.9258 7.8125-0.12109 9.9531-1.6445h-2.4531v-0.003906c-2.2344 0.003906-4.3789-0.88281-5.9531-2.4648z"/>
 <path d="m23.25 46.117c0.23438-0.058594 0.48438-0.003907 0.67578 0.14844l7.8125 6.25c0.18359 0.14844 0.29297 0.37109 0.29297 0.60938 0 0.058594 0.066406 5.8789 4.3398 8.7266l4.1328 4.1133c1.2812 1.2852 3.0273 2.0078 4.8438 2.0039h9.3008c1.8164 0.003906 3.5586-0.71875 4.8438-2.0039l4.0117-4.0156c4.3984-2.9492 4.4648-8.7656 4.4648-8.8242 0-0.23828 0.10938-0.46094 0.29297-0.60938l7.8125-6.25c0.19141-0.14844 0.44141-0.20312 0.67578-0.14844 0.039062 0.007812 2.3984 0.59375 5.2617 1.0391l3.3203-9.1172c-6.4453-1.6562-14.055-3.5938-19.141-4.832l-0.003906 0.003907c-1.0117 1.9609-2.5625 3.5938-4.4688 4.7031v2.4492h0.60547c1.6797 0.003907 3.0391 1.3633 3.0391 3.043v0.96875c0.003907 1.3086-0.83594 2.4727-2.0781 2.8867l-1.6328 0.54297h0.003906c-0.14062 2.4023-0.95312 4.7188-2.3438 6.6836l-2.3594 3.3008c-1.0625 1.4844-2.7695 2.3672-4.5938 2.3672h-4.7188c-1.8203 0-3.5312-0.88281-4.5898-2.3633l-2.3594-3.3008c-1.3945-1.9648-2.207-4.2812-2.3438-6.6836l-1.6289-0.54297c-1.2422-0.41406-2.0781-1.5781-2.0781-2.8867v-0.97266c0-1.6797 1.3594-3.0391 3.0391-3.043h0.60156v-2.5508c-1.3477-1.4219-2.3828-3.1094-3.0391-4.9531-4.8438 1.1641-13.297 3.3125-20.574 5.1797l3.3203 9.1133c2.8633-0.44141 5.2227-1.0273 5.2617-1.0352z"/>
 <path d="m36.199 43.406v0.96875c-0.003907 0.63672 0.40625 1.207 1.0117 1.4062l1.0703 0.35938v-4.2188h-0.60547c-0.39453 0-0.76953 0.15625-1.0469 0.43359-0.27734 0.28125-0.43359 0.65625-0.42969 1.0508z"/>
 <path d="m45.312 41.406c-0.12109 0-0.24219-0.027344-0.35156-0.082031l-5.1172-2.5586v8.207c-0.003906 2.3711 0.73828 4.6836 2.1172 6.6094l2.3594 3.3008c0.76563 1.0742 2.0039 1.7109 3.3203 1.7109h4.7188c1.3164 0 2.5547-0.63672 3.3203-1.7109l2.3594-3.3008c1.3789-1.9258 2.1211-4.2383 2.1172-6.6094v-8.6914h-9.9219l-4.4922 2.9922h0.003906c-0.12891 0.085937-0.28125 0.13281-0.43359 0.13281zm3.9062 5.4688c0-0.42969 0.35156-0.78125 0.78125-0.78125s0.78125 0.35156 0.78125 0.78125v2.3438h0.78125c0.42969 0 0.78125 0.35156 0.78125 0.78125s-0.35156 0.78125-0.78125 0.78125h-1.5625c-0.42969 0-0.78125-0.35156-0.78125-0.78125z"/>
 <path d="m18.41 71.094h-10.414l-2.8398 1.4219-2.8125 2.8125v2.0156h6.8477l6.0859-3.043h-0.003906c0.38672-0.19141 0.85547-0.035156 1.0508 0.34766l0.88672 1.7734c0.27734 0.56641 0.85547 0.92188 1.4883 0.92188h1.4375c0.19141 0 0.375-0.089844 0.49609-0.23828 0.12109-0.14844 0.16797-0.34375 0.12891-0.53125l-0.84766-4.2422v-0.003906c-0.14453-0.71484-0.77344-1.2305-1.5039-1.2344z"/>
 <path d="m14.844 69.531v-6.875c0-3.1211-0.50391-6.2266-1.4922-9.1875l-1.5938-4.7812c-0.078124-0.23828-0.039062-0.50391 0.10938-0.70703 0.14453-0.20312 0.38281-0.32422 0.63281-0.32422 1.3047-0.011719 2.6094-0.10547 3.9062-0.28125l-3.2578-8.9375c-3.9492 1.0156-7.4297 1.918-9.5781 2.4766-0.72266 0.19531-1.2266 0.85156-1.2266 1.6016v2.6992l6.0781 24.316z"/>
 <path d="m45.258 39.723 4.3125-2.875-0.003906 0.003906c0.12891-0.085937 0.28125-0.13281 0.43359-0.13281h10.719c5.5547-3.4375 4.9336-7.6094 4.4453-9.1797l-3.9805 1.3281c-0.20703 0.070312-0.43359 0.046874-0.62109-0.058594-0.19141-0.10156-0.33203-0.28516-0.38281-0.49609l-1.375-5.4922-5.4922 1.375c-0.32031 0.078126-0.65625-0.050781-0.83594-0.32422l-2.5117-3.7695-4.0273 5.3672c-0.20312 0.26953-0.55078 0.37891-0.87109 0.27344l-4.1289-1.3672-2.793 4.1914c-0.058593 0.085938-0.13281 0.16016-0.21875 0.21484-0.76562 0.44531-1.2773 1.2266-1.3789 2.1094-0.21875 2.168 1.9961 4.9648 2.9688 5.9766z"/>
 <path d="m63.801 44.375v-0.97266c0-0.81641-0.66016-1.4766-1.4766-1.4805h-0.60547v4.2188l1.0742-0.35938v0.003906c0.60547-0.20312 1.0117-0.77344 1.0078-1.4102z"/>
 <path d="m81.59 71.094c-0.73438 0.003906-1.3633 0.51953-1.5117 1.2344l-0.84766 4.2422v0.003907c-0.035157 0.1875 0.011719 0.38281 0.13281 0.53125 0.12109 0.14844 0.30078 0.23828 0.49219 0.23828h1.4375c0.63281 0 1.2109-0.35547 1.4922-0.92188l0.88672-1.7734c0.19141-0.38281 0.66016-0.53906 1.0469-0.34766l6.0898 3.043h6.8477v-2.0195l-2.8125-2.8125-2.8398-1.418z"/>
 <path d="m96.43 40.914c-1.6328-0.42969-5.25-1.3672-9.5781-2.4844l-3.2578 8.9453c1.2969 0.17578 2.6016 0.26953 3.9062 0.28125 0.25 0 0.48828 0.12109 0.63281 0.32422 0.14844 0.20312 0.1875 0.46484 0.10938 0.70312l-1.5938 4.7812v0.003906c-0.98828 2.9609-1.4922 6.0625-1.4922 9.1875v6.875h6.4219l6.0781-24.316v-2.6992c0.003906-0.75-0.50391-1.4102-1.2266-1.6016z"/>
</svg>
