<?xml version="1.0" encoding="UTF-8"?>
<svg width="128pt" height="128pt" version="1.1" viewBox="0 0 128 128" xmlns="http://www.w3.org/2000/svg">
 <path d="m6.3984 0h115.2c3.5352 0 6.3984 3.5352 6.3984 6.3984v115.2c0 3.5352-2.8672 6.3984-6.3984 6.3984h-115.2c-3.5352 0-6.3984-3.5352-6.3984-6.3984v-115.2c0-3.5352 2.8672-6.3984 6.3984-6.3984z" fill="#37777f"/>
 <path d="m72.547 77.758c-1.2695 1.2773-3 1.9922-4.7969 1.9844h-1.9766c1.7344 1.2266 4.9141 2.8789 8.0234 1.3281 2.8984-1.4414 2.9727-4.8672 2.6797-7.0781h-0.003906c-0.25 0.21875-0.51172 0.42187-0.78906 0.60937z" fill="#fff"/>
 <path d="m55.453 77.758-3.2344-3.2344c-0.24219-0.17578-0.47266-0.36328-0.6875-0.5625-0.29688 2.2109-0.23047 5.6602 2.6758 7.1094 3.1094 1.5547 6.2969-0.097656 8.0234-1.3281h-1.9805c-1.7969 0.007812-3.5273-0.70703-4.7969-1.9844z" fill="#fff"/>
 <path d="m42.438 60.871c0.1875-0.046875 0.39062-0.003906 0.54297 0.11719l6.2969 5.0391c0.15234 0.11719 0.23828 0.30078 0.23828 0.49219 0 0.046875 0.054687 4.7383 3.4961 7.0352l3.332 3.3164v-0.003906c1.0352 1.0391 2.4414 1.6211 3.9062 1.6172h7.4961c1.4648 0.003906 2.8711-0.57812 3.9062-1.6172l3.2344-3.2383c3.543-2.3711 3.5977-7.0625 3.5977-7.1094 0-0.19141 0.085937-0.37109 0.23828-0.49219l6.2969-5.0391c0.15234-0.11719 0.35547-0.16406 0.54297-0.11719 0.03125 0.007812 1.9336 0.47656 4.2422 0.83594l2.6758-7.3477c-5.1953-1.3359-11.328-2.8984-15.43-3.8945-0.81641 1.582-2.0664 2.8984-3.6055 3.793v1.9727h0.48828v0.003906c1.3555 0 2.4492 1.0977 2.4531 2.4492v0.78125c0 1.0547-0.67578 1.9922-1.6758 2.3281l-1.3164 0.4375c-0.11328 1.9375-0.76562 3.8047-1.8906 5.3867l-1.9023 2.6602 0.003907 0.003906c-0.85547 1.1953-2.2344 1.9023-3.7031 1.9062h-3.8047c-1.4688 0-2.8438-0.71094-3.6992-1.9062l-1.9023-2.6602c-1.1211-1.582-1.7773-3.4492-1.8906-5.3867l-1.3125-0.44141c-1-0.33203-1.6758-1.2695-1.6758-2.3242v-0.78516c0.003906-1.3516 1.0977-2.4492 2.4531-2.4492h0.48438v-2.0586c-1.0859-1.1445-1.9219-2.5039-2.4492-3.9922-3.9062 0.9375-10.719 2.668-16.586 4.1758l2.6758 7.3477c2.3086-0.35938 4.207-0.82812 4.2422-0.83594z" fill="#fff"/>
 <path d="m52.875 58.684v0.78125c-0.003906 0.51562 0.32812 0.97266 0.81641 1.1328l0.86328 0.28906v-3.4023h-0.48828v0.003906c-0.31641 0-0.62109 0.125-0.84375 0.35156-0.22266 0.22266-0.34766 0.52734-0.34766 0.84375z" fill="#fff"/>
 <path d="m60.223 57.074c-0.097656 0-0.19531-0.023438-0.28516-0.066407l-4.125-2.0625v6.6172-0.003906c-0.003906 1.9141 0.59375 3.7773 1.707 5.3281l1.9023 2.6602v0.003906c0.61719 0.86328 1.6133 1.375 2.6758 1.375h3.8047c1.0625 0 2.0586-0.51172 2.6758-1.375l1.9023-2.6602v-0.003906c1.1133-1.5508 1.7109-3.4141 1.707-5.3281v-7.0039h-7.9961l-3.6211 2.4141c-0.10156 0.066406-0.22656 0.10547-0.34766 0.10547zm3.1484 4.4062c0-0.34766 0.28125-0.62891 0.62891-0.62891s0.62891 0.28125 0.62891 0.62891v1.8906h0.62891c0.34766 0 0.63281 0.28125 0.63281 0.62891s-0.28516 0.62891-0.63281 0.62891h-1.2578c-0.34766 0-0.62891-0.28125-0.62891-0.62891z" fill="#fff"/>
 <path d="m38.535 81.004h-8.3945l-2.2891 1.1484-2.2656 2.2656v1.625h5.5195l4.9062-2.4531h-0.003907c0.3125-0.15625 0.69141-0.03125 0.84766 0.28125l0.71484 1.4297-0.003906-0.003906c0.22656 0.45703 0.69531 0.74609 1.2031 0.74609h1.1602c0.15234-0.003907 0.30078-0.074219 0.39453-0.19141 0.097656-0.12109 0.13672-0.27734 0.10938-0.42969l-0.68359-3.4219h-0.003906c-0.11719-0.57812-0.62109-0.99219-1.2109-0.99609z" fill="#fff"/>
 <path d="m35.66 79.742v-5.5391c0-2.5195-0.40625-5.0195-1.1992-7.4062l-1.2852-3.8555c-0.066406-0.19141-0.035156-0.40234 0.085938-0.57031 0.11719-0.16406 0.30859-0.26172 0.51172-0.26172 1.0508-0.007813 2.1016-0.085937 3.1484-0.22266l-2.625-7.207c-3.1836 0.82031-5.9883 1.5469-7.7227 1.9961-0.58594 0.15625-0.99219 0.6875-0.98828 1.293v2.1758l4.8984 19.598z" fill="#fff"/>
 <path d="m60.176 55.715 3.4766-2.3164c0.10156-0.066407 0.22266-0.10547 0.34766-0.10547h8.6406c4.4766-2.7695 3.9766-6.1328 3.5859-7.3984l-3.2109 1.0703c-0.16797 0.054687-0.34766 0.039062-0.50391-0.046875-0.15234-0.082031-0.26172-0.22656-0.30469-0.39844l-1.1055-4.4258-4.4258 1.1055h-0.003906c-0.25781 0.0625-0.52734-0.039063-0.67578-0.26172l-2.0234-3.0391-3.2461 4.3281c-0.16406 0.21484-0.44531 0.30469-0.70312 0.21875l-3.3281-1.1016-2.2539 3.3789c-0.042968 0.070313-0.10547 0.12891-0.17188 0.17578-0.62109 0.35547-1.0312 0.98437-1.1133 1.6953-0.17578 1.7461 1.6094 4 2.3945 4.8203z" fill="#fff"/>
 <path d="m75.125 59.465v-0.78516c0-0.65625-0.53125-1.1875-1.1914-1.1914h-0.48828v3.4023l0.86719-0.28906c0.48828-0.16406 0.81641-0.62109 0.8125-1.1367z" fill="#fff"/>
 <path d="m89.465 81.004c-0.58984 0-1.0977 0.41797-1.2188 0.99609l-0.68359 3.4219c-0.03125 0.15234 0.007812 0.30859 0.10547 0.42969 0.097656 0.11719 0.24609 0.1875 0.39844 0.19141h1.1602c0.50781 0 0.97656-0.28906 1.1992-0.74609l0.71484-1.4297v0.003906c0.15625-0.3125 0.53516-0.4375 0.84766-0.28125l4.9062 2.4531h5.5195v-1.6289l-2.2656-2.2656-2.2891-1.1445z" fill="#fff"/>
 <path d="m101.43 56.676c-1.3164-0.34375-4.2305-1.1016-7.7188-2l-2.6289 7.2109c1.0469 0.13672 2.0977 0.21484 3.1523 0.22266 0.19922 0 0.39062 0.097656 0.50781 0.26172 0.11719 0.16406 0.15234 0.375 0.085938 0.57031l-1.2852 3.8555c-0.79297 2.3867-1.1992 4.8867-1.1992 7.4062v5.543h5.1758l4.8984-19.602v-2.1758c0.003907-0.60938-0.40234-1.1367-0.98828-1.293z" fill="#fff"/>
</svg>
